<?xml version="1.0" standalone="no"?>
<!DOCTYPE svg PUBLIC "-//W3C//DTD SVG 20010904//EN"
 "http://www.w3.org/TR/2001/REC-SVG-20010904/DTD/svg10.dtd">
<svg version="1.0" xmlns="http://www.w3.org/2000/svg"
 width="767.000000pt" height="767.000000pt" viewBox="0 0 767.000000 767.000000"
 preserveAspectRatio="xMidYMid meet">
<metadata>
Created by potrace 1.14, written by Peter Selinger 2001-2017
</metadata>
<g transform="translate(0.000000,767.000000) scale(0.100000,-0.100000)"
fill="#000000" stroke="none">
<path d="M0 3835 l0 -3835 3835 0 3835 0 0 3835 0 3835 -3835 0 -3835 0 0
-3835z m4260 3410 c852 -100 1579 -595 2165 -1475 154 -231 241 -383 360 -625
129 -262 305 -695 305 -749 0 -24 -527 -86 -890 -105 -219 -12 -543 -14 -614
-5 l-47 7 -39 81 c-58 121 -111 197 -208 298 -135 140 -254 216 -432 273 -109
35 -313 46 -425 22 -200 -43 -366 -143 -513 -312 l-43 -49 -132 53 c-365 147
-740 366 -977 570 -41 36 -134 128 -205 204 -72 75 -131 133 -133 129 -1 -5
15 -60 37 -123 21 -63 46 -141 56 -173 14 -49 36 -106 101 -252 4 -8 -11 -7
-48 3 -102 26 -245 35 -367 23 -134 -14 -111 -28 -218 133 l-65 98 -36 -23
c-222 -133 -376 -304 -486 -539 -117 -249 -178 -543 -192 -924 -7 -176 7 -461
30 -640 7 -55 12 -101 11 -103 -1 -2 -23 37 -49 87 -64 124 -109 266 -151 476
-20 99 -38 181 -40 183 -1 2 -30 -62 -63 -141 -50 -117 -81 -225 -82 -279 0
-5 -10 -8 -23 -8 -22 0 -26 10 -60 158 -74 313 -96 478 -104 767 -4 142 -1
269 6 355 89 971 624 1702 1606 2190 463 230 932 373 1375 419 140 14 454 12
590 -4z m-2330 -2277 c0 -4 -19 -20 -42 -34 -141 -88 -240 -219 -297 -393 -35
-106 -28 -121 56 -121 30 0 32 2 53 73 44 147 136 272 249 338 l62 37 127
-127 c70 -70 165 -158 212 -195 287 -229 657 -414 1000 -501 73 -18 307 -65
327 -65 2 0 3 -30 3 -67 0 -233 102 -518 254 -709 l64 -81 -25 -44 c-21 -35 0
-17 98 82 176 179 323 271 558 349 245 82 498 114 841 107 194 -3 218 -2 177
9 -27 7 -51 15 -54 17 -2 3 1 39 7 81 12 73 9 267 -6 359 l-6 37 283 0 c291 0
458 8 729 36 85 8 171 16 190 17 l35 2 35 -100 c33 -95 34 -107 35 -235 0
-125 -2 -139 -26 -190 -46 -98 -163 -206 -198 -183 -12 8 -32 2 -84 -26 -40
-22 -65 -41 -62 -49 30 -81 31 -383 0 -575 -106 -672 -390 -1261 -810 -1682
-475 -475 -1118 -714 -1864 -692 -390 12 -703 86 -1039 249 -534 258 -1042
770 -1324 1333 -38 77 -73 140 -76 139 -4 0 -47 -20 -96 -44 -78 -39 -98 -44
-172 -48 -79 -4 -89 -2 -149 27 -172 85 -319 360 -380 715 -20 119 -20 248 1
292 16 33 61 74 82 74 6 0 23 -37 38 -82 54 -165 126 -332 244 -565 101 -201
119 -231 115 -193 -35 313 -70 738 -61 747 2 2 20 -26 40 -64 51 -97 131 -199
192 -247 30 -22 95 -63 145 -90 l92 -49 -6 29 c-97 450 -112 585 -112 994 0
343 8 434 57 645 69 300 205 548 378 691 l55 46 27 -33 c16 -18 28 -37 28 -41z
m609 -73 c90 -22 182 -69 235 -122 45 -44 106 -150 106 -185 0 -15 8 -18 50
-18 48 0 54 -3 163 -91 121 -98 274 -204 381 -264 37 -21 65 -39 63 -41 -7 -7
-242 55 -346 91 -331 116 -634 302 -906 559 -67 63 -77 77 -65 86 21 15 236 5
319 -15z m468 -44 c205 -130 471 -264 695 -352 49 -19 88 -39 88 -44 0 -6 -13
-42 -29 -80 -15 -39 -31 -78 -34 -88 -6 -16 -10 -16 -56 8 -230 116 -532 340
-681 504 -71 78 -105 121 -96 121 2 0 53 -31 113 -69z m1813 -28 c217 -63 419
-230 534 -443 21 -39 35 -74 32 -78 -9 -9 -261 15 -459 44 -281 41 -548 100
-805 180 l-113 35 31 38 c39 50 159 141 236 179 167 84 357 99 544 45z m-814
-433 c230 -79 613 -167 909 -209 155 -23 435 -51 501 -51 42 0 44 -1 54 -38
27 -104 30 -305 5 -406 -7 -26 -11 -28 -44 -23 -91 15 -295 18 -406 8 -379
-36 -671 -159 -884 -370 l-74 -74 -24 29 c-140 170 -228 390 -240 604 l-6 105
344 -2 c189 -1 337 0 329 4 -8 3 -113 41 -233 84 -184 66 -407 156 -407 163 0
22 75 206 83 206 2 0 43 -14 93 -30z"/>
<path d="M4195 5934 c-92 -19 -236 -90 -305 -149 -30 -26 -77 -75 -104 -109
-77 -95 -175 -321 -150 -346 5 -5 33 -10 62 -12 l52 -3 28 81 c76 217 225 358
432 410 90 23 332 15 445 -15 192 -50 361 -174 416 -304 l24 -58 48 6 c89 11
89 11 36 121 -72 152 -249 286 -459 348 -151 45 -387 58 -525 30z"/>
<path d="M2126 4363 c-308 -65 -549 -316 -631 -655 -22 -91 -30 -267 -16 -373
14 -103 68 -276 112 -352 16 -29 29 -56 29 -60 0 -5 -13 -17 -29 -28 -39 -25
-32 -31 10 -9 32 16 33 16 51 -6 10 -12 18 -19 18 -15 0 5 27 -18 60 -49 61
-59 213 -141 247 -134 21 4 37 68 18 68 -7 0 -49 18 -93 40 -84 42 -167 114
-155 134 4 6 8 16 8 21 0 15 322 120 443 143 273 55 509 46 726 -24 l48 -16
-48 -50 c-27 -27 -64 -59 -81 -71 -38 -25 -39 -33 -14 -66 l19 -25 39 29 c21
15 58 48 83 72 l46 43 -4 -63 c-7 -103 43 -194 141 -261 96 -64 220 -82 294
-42 l28 15 -50 1 c-132 1 -296 145 -299 262 -1 47 32 79 106 104 95 31 214 -5
330 -100 52 -42 57 -44 48 -21 -27 71 -115 167 -187 204 -78 39 -192 44 -275
12 -16 -6 -28 -9 -28 -8 0 1 9 45 20 97 36 175 23 388 -34 556 -151 445 -573
715 -980 627z m316 -122 c284 -73 512 -329 584 -653 31 -139 18 -366 -27 -486
l-9 -22 -47 24 c-294 148 -736 120 -1115 -70 -48 -24 -92 -44 -98 -44 -16 0
-77 131 -107 227 -24 80 -27 103 -27 253 -1 144 2 175 22 244 77 266 277 474
509 530 86 21 226 20 315 -3z"/>
<path d="M2672 3580 c-49 -30 -74 -76 -69 -127 8 -77 62 -126 139 -125 76 1
128 56 128 134 0 107 -109 172 -198 118z"/>
<path d="M5675 3384 c-31 -16 -95 -73 -95 -85 0 -3 21 5 48 18 38 20 58 24
106 20 58 -3 61 -5 115 -63 41 -44 77 -100 133 -209 65 -125 77 -145 78 -117
1 94 -59 262 -124 351 -65 88 -182 126 -261 85z"/>
<path d="M5244 3190 c-66 -9 -149 -47 -197 -90 -52 -45 -86 -106 -108 -196
-11 -41 -31 -100 -44 -129 -55 -126 -191 -297 -264 -335 -33 -16 -157 -49
-361 -94 -153 -34 -246 -99 -295 -208 -54 -120 -32 -281 64 -484 27 -56 68
-130 91 -165 62 -92 212 -237 297 -288 237 -141 499 -144 770 -11 214 105 370
270 489 512 39 82 58 135 120 341 20 67 24 107 31 302 7 240 -20 393 -99 550
-106 211 -293 323 -494 295z m188 -147 c108 -47 200 -170 247 -328 21 -71 45
-204 38 -211 -2 -3 -67 -15 -143 -29 -135 -23 -378 -82 -438 -104 -27 -11 -28
-10 -21 11 4 13 9 55 12 94 4 59 1 78 -16 112 -20 39 -67 82 -103 95 -15 5
-15 10 5 61 l21 54 35 -30 c38 -34 89 -58 122 -58 77 0 142 116 124 222 -8 44
-66 118 -93 118 -26 0 -4 13 35 20 54 10 109 2 175 -27z m-215 -42 c46 -69 20
-202 -41 -209 -45 -5 -126 36 -126 63 0 70 81 189 125 183 10 -2 30 -18 42
-37z m-166 -429 c15 -44 6 -120 -20 -170 -23 -45 -41 -55 -79 -46 -31 8 -142
62 -142 69 0 3 28 42 63 88 34 45 71 99 82 119 l19 38 33 -32 c18 -17 38 -47
44 -66z m669 -224 c0 -40 -3 -97 -6 -125 l-7 -53 -151 0 c-244 0 -370 -29
-453 -105 -40 -36 -52 -55 -72 -116 -39 -124 -98 -227 -172 -301 -53 -54 -73
-68 -97 -68 -59 0 -116 102 -136 243 -32 214 223 399 715 521 113 28 314 69
372 75 4 1 7 -32 7 -71z m-825 -45 c11 -7 18 -13 15 -15 -3 -3 -43 -26 -89
-53 -115 -67 -202 -150 -243 -232 -28 -58 -32 -75 -32 -147 1 -61 8 -101 28
-161 47 -138 99 -194 181 -195 l40 -1 -39 -14 c-89 -31 -160 -123 -154 -197 2
-21 1 -38 -2 -38 -3 0 -32 14 -64 30 -193 98 -357 305 -442 557 -54 160 -30
273 70 341 67 44 76 42 76 -16 0 -114 51 -199 127 -209 74 -10 167 48 208 130
30 61 32 109 5 162 -11 22 -20 40 -20 41 0 0 19 7 43 14 54 16 125 52 156 79
l24 21 46 -43 c25 -24 55 -48 66 -54z m-347 -76 c4 -63 -30 -123 -95 -166 -57
-38 -86 -39 -118 -5 -23 25 -83 160 -74 168 7 7 244 54 264 53 17 -2 21 -10
23 -50z m1135 -169 c-3 -18 -7 -34 -8 -36 -1 -1 -22 7 -46 18 -123 56 -209 -5
-209 -148 0 -80 31 -139 88 -167 22 -11 41 -23 42 -26 0 -7 -87 -139 -104
-157 -10 -10 -20 -5 -53 26 -112 107 -246 110 -289 6 -30 -73 -12 -198 37
-250 l20 -22 -73 -30 c-40 -16 -87 -33 -104 -36 l-32 -7 5 88 c5 81 3 91 -19
123 -28 41 -61 60 -108 60 l-35 1 31 13 c97 43 217 214 273 391 46 143 137
181 438 184 l153 1 -7 -32z m-60 -79 c20 -5 37 -14 37 -20 0 -18 -71 -194 -83
-207 -11 -10 -19 -6 -42 19 -28 28 -30 35 -30 110 0 68 3 83 19 95 23 17 48
18 99 3z m-260 -432 c31 -14 57 -30 57 -35 0 -13 -108 -113 -162 -150 l-47
-32 -19 25 c-11 14 -23 42 -27 63 -7 41 9 128 28 150 16 20 98 10 170 -21z
m-485 -152 c28 -35 50 -164 31 -177 -15 -10 -208 -4 -246 8 -40 11 -24 81 29
131 30 29 106 63 140 63 17 0 34 -9 46 -25z"/>
<path d="M3786 2083 c-21 -21 -50 -60 -64 -88 -24 -45 -27 -61 -27 -155 0
-103 1 -107 39 -177 26 -49 61 -94 107 -138 38 -36 74 -65 79 -65 6 0 -7 28
-29 63 -139 220 -162 371 -82 540 15 31 25 57 21 57 -4 0 -24 -17 -44 -37z"/>
<path d="M4202 3880 c-69 -16 -121 -96 -108 -165 25 -134 208 -156 272 -33 54
103 -47 225 -164 198z"/>
</g>
</svg>
