<?xml version="1.0" standalone="no"?>
<!DOCTYPE svg PUBLIC "-//W3C//DTD SVG 20010904//EN"
 "http://www.w3.org/TR/2001/REC-SVG-20010904/DTD/svg10.dtd">
<svg version="1.0" xmlns="http://www.w3.org/2000/svg"
 width="184.000000pt" height="184.000000pt" viewBox="0 0 184.000000 184.000000"
 preserveAspectRatio="xMidYMid meet">
<metadata>
Created by potrace 1.14, written by Peter Selinger 2001-2017
</metadata>
<g transform="translate(0.000000,184.000000) scale(0.100000,-0.100000)"
fill="#000000" stroke="none">
<path d="M0 920 l0 -920 920 0 920 0 0 920 0 920 -920 0 -920 0 0 -920z m1170
570 l0 -130 -100 0 -100 0 0 -100 0 -100 -65 0 -65 0 0 -65 0 -65 230 0 230 0
0 -70 0 -70 -230 0 -230 0 0 -65 0 -65 65 0 65 0 0 -65 0 -65 100 0 100 0 0
-130 0 -130 65 0 65 0 0 -65 0 -65 -165 0 -165 0 0 195 0 195 -130 0 -130 0 0
-130 0 -130 65 0 65 0 0 -65 0 -65 -130 0 -130 0 0 195 0 195 65 0 65 0 0 130
0 130 -65 0 -65 0 0 -65 0 -65 -70 0 -70 0 0 65 0 65 70 0 70 0 0 70 0 70 65
0 65 0 0 165 0 165 -65 0 -65 0 0 65 0 65 65 0 65 0 0 65 0 65 230 0 230 0 0
-130z"/>
</g>
</svg>
